# xmcd
#
# Track frame offsets:
#	153
#	14916
#	31409
#	46596
#	62315
#	80749
#	98553
#	114227
#	137710
#	152648
#	169569
#	187578
#
# Disc length: 2738 seconds
#
# Revision: 0
# Processed by: cddbd v1.5.1PL0 Copyright (c) Steve Scherf et al.
# Submitted via: dBpowerAMP V4.0
#
DISCID=850ab00c
DTITLE=Southern Sons - Southern Sons
DYEAR=1900
DGENRE=Country
TTITLE0=Three Strikes
TTITLE1=Somekinda Wonderful
TTITLE2=As Your Standin' and Lyin to Me
TTITLE3=Headaches, Heartbreaks, Hangover
TTITLE4=Between You and Me
TTITLE5=Missing You Blues
TTITLE6=Small Town
TTITLE7=Ever Since You Went Away
TTITLE8=Still Wear the Hat
TTITLE9=Got the Girl
TTITLE10=My Turn to Shine
TTITLE11=Is This Were It Starts
EXTD=
EXTT0=
EXTT1=
EXTT2=
EXTT3=
EXTT4=
EXTT5=
EXTT6=
EXTT7=
EXTT8=
EXTT9=
EXTT10=
EXTT11=
PLAYORDER=
